<mxfile host="app.diagrams.net" modified="2024-07-03T04:47:02.688Z" agent="Mozilla/5.0 (Macintosh; Intel Mac OS X 10.15; rv:127.0) Gecko/20100101 Firefox/127.0" etag="qlcgopdVIaU3Dl75x4vd" version="24.6.4" type="dropbox">
  <diagram name="Page-1" id="POPyWMR3nqM8hn_e3dvi">
    <mxGraphModel dx="1370" dy="899" grid="1" gridSize="10" guides="1" tooltips="1" connect="1" arrows="1" fold="1" page="1" pageScale="1" pageWidth="1169" pageHeight="827" math="0" shadow="0">
      <root>
        <mxCell id="0" />
        <mxCell id="1" parent="0" />
        <mxCell id="ayYl6s1Dmx4laIE9Qj4S-24" value="" style="rounded=0;whiteSpace=wrap;html=1;" vertex="1" parent="1">
          <mxGeometry x="40" y="84" width="300" height="306" as="geometry" />
        </mxCell>
        <mxCell id="ayYl6s1Dmx4laIE9Qj4S-25" value="" style="rounded=0;whiteSpace=wrap;html=1;" vertex="1" parent="1">
          <mxGeometry x="420" y="84" width="340" height="616" as="geometry" />
        </mxCell>
        <mxCell id="ayYl6s1Dmx4laIE9Qj4S-26" value="" style="rounded=0;whiteSpace=wrap;html=1;" vertex="1" parent="1">
          <mxGeometry x="830" y="84" width="300" height="306" as="geometry" />
        </mxCell>
        <mxCell id="ayYl6s1Dmx4laIE9Qj4S-27" value="&lt;div align=&quot;left&quot;&gt;&lt;font style=&quot;font-size: 32px;&quot;&gt;Client (CLI)&lt;/font&gt;&lt;/div&gt;" style="text;html=1;align=left;verticalAlign=middle;whiteSpace=wrap;rounded=0;" vertex="1" parent="1">
          <mxGeometry x="60" y="104" width="170" height="30" as="geometry" />
        </mxCell>
        <mxCell id="ayYl6s1Dmx4laIE9Qj4S-29" value="&lt;div align=&quot;left&quot;&gt;&lt;font style=&quot;font-size: 32px;&quot;&gt;Host&lt;/font&gt;&lt;/div&gt;" style="text;html=1;align=left;verticalAlign=middle;whiteSpace=wrap;rounded=0;" vertex="1" parent="1">
          <mxGeometry x="454.5" y="104" width="80" height="30" as="geometry" />
        </mxCell>
        <mxCell id="ayYl6s1Dmx4laIE9Qj4S-30" value="&lt;div align=&quot;left&quot;&gt;&lt;font style=&quot;font-size: 32px;&quot;&gt;Registry&lt;/font&gt;&lt;/div&gt;" style="text;html=1;align=left;verticalAlign=middle;whiteSpace=wrap;rounded=0;" vertex="1" parent="1">
          <mxGeometry x="850" y="104" width="130" height="30" as="geometry" />
        </mxCell>
        <mxCell id="ayYl6s1Dmx4laIE9Qj4S-32" value="&lt;div align=&quot;left&quot;&gt;&lt;font style=&quot;font-size: 24px;&quot; face=&quot;Courier New&quot;&gt;docker build&lt;/font&gt;&lt;/div&gt;" style="text;html=1;align=left;verticalAlign=middle;whiteSpace=wrap;rounded=0;" vertex="1" parent="1">
          <mxGeometry x="84" y="200" width="196" height="50" as="geometry" />
        </mxCell>
        <mxCell id="ayYl6s1Dmx4laIE9Qj4S-33" value="&lt;div align=&quot;left&quot;&gt;&lt;font style=&quot;font-size: 24px;&quot; face=&quot;Courier New&quot;&gt;docker pull&lt;/font&gt;&lt;/div&gt;" style="text;html=1;align=left;verticalAlign=middle;whiteSpace=wrap;rounded=0;" vertex="1" parent="1">
          <mxGeometry x="84" y="250" width="186" height="50" as="geometry" />
        </mxCell>
        <mxCell id="ayYl6s1Dmx4laIE9Qj4S-34" value="&lt;div align=&quot;left&quot;&gt;&lt;font style=&quot;font-size: 24px;&quot; face=&quot;Courier New&quot;&gt;docker run&lt;/font&gt;&lt;/div&gt;" style="text;html=1;align=left;verticalAlign=middle;whiteSpace=wrap;rounded=0;" vertex="1" parent="1">
          <mxGeometry x="84" y="300" width="166" height="50" as="geometry" />
        </mxCell>
        <mxCell id="ayYl6s1Dmx4laIE9Qj4S-37" value="" style="group" vertex="1" connectable="0" parent="1">
          <mxGeometry x="470" y="187.5" width="240" height="75" as="geometry" />
        </mxCell>
        <mxCell id="ayYl6s1Dmx4laIE9Qj4S-35" value="" style="rounded=1;whiteSpace=wrap;html=1;" vertex="1" parent="ayYl6s1Dmx4laIE9Qj4S-37">
          <mxGeometry width="240" height="75" as="geometry" />
        </mxCell>
        <mxCell id="ayYl6s1Dmx4laIE9Qj4S-36" value="&lt;font style=&quot;font-size: 18px;&quot;&gt;&lt;font style=&quot;font-size: 24px;&quot;&gt;Docker daemon&lt;/font&gt;&lt;br&gt;&lt;/font&gt;" style="text;html=1;align=center;verticalAlign=middle;whiteSpace=wrap;rounded=0;" vertex="1" parent="ayYl6s1Dmx4laIE9Qj4S-37">
          <mxGeometry x="15.652173913043478" y="22.5" width="208.69565217391303" height="30" as="geometry" />
        </mxCell>
        <mxCell id="ayYl6s1Dmx4laIE9Qj4S-38" value="" style="rounded=0;whiteSpace=wrap;html=1;fillColor=none;dashed=1;dashPattern=8 8;" vertex="1" parent="1">
          <mxGeometry x="550" y="350" width="180" height="150" as="geometry" />
        </mxCell>
        <mxCell id="ayYl6s1Dmx4laIE9Qj4S-39" value="" style="rounded=0;whiteSpace=wrap;html=1;fillColor=none;dashed=1;dashPattern=8 8;" vertex="1" parent="1">
          <mxGeometry x="450" y="520" width="180" height="150" as="geometry" />
        </mxCell>
        <mxCell id="ayYl6s1Dmx4laIE9Qj4S-40" value="&lt;div align=&quot;right&quot;&gt;&lt;font style=&quot;font-size: 18px;&quot;&gt;&lt;font style=&quot;font-size: 24px;&quot;&gt;Images&lt;/font&gt;&lt;/font&gt;&lt;br&gt;&lt;/div&gt;" style="text;html=1;align=right;verticalAlign=middle;whiteSpace=wrap;rounded=0;" vertex="1" parent="1">
          <mxGeometry x="573.65" y="360" width="138.7" height="30" as="geometry" />
        </mxCell>
        <mxCell id="ayYl6s1Dmx4laIE9Qj4S-41" value="&lt;div align=&quot;left&quot;&gt;&lt;font style=&quot;font-size: 18px;&quot;&gt;&lt;font style=&quot;font-size: 24px;&quot;&gt;Containers&lt;/font&gt;&lt;/font&gt;&lt;br&gt;&lt;/div&gt;" style="text;html=1;align=left;verticalAlign=middle;whiteSpace=wrap;rounded=0;" vertex="1" parent="1">
          <mxGeometry x="459.99999999999994" y="530" width="138.7" height="30" as="geometry" />
        </mxCell>
        <mxCell id="ayYl6s1Dmx4laIE9Qj4S-42" value="" style="rounded=0;whiteSpace=wrap;html=1;fillColor=#f5f5f5;fontColor=#333333;strokeColor=#666666;" vertex="1" parent="1">
          <mxGeometry x="571.65" y="414" width="59.35" height="60" as="geometry" />
        </mxCell>
        <mxCell id="ayYl6s1Dmx4laIE9Qj4S-43" value="" style="rounded=0;whiteSpace=wrap;html=1;fillColor=#f5f5f5;fontColor=#333333;strokeColor=#666666;" vertex="1" parent="1">
          <mxGeometry x="653" y="414" width="59.35" height="60" as="geometry" />
        </mxCell>
        <mxCell id="ayYl6s1Dmx4laIE9Qj4S-44" value="" style="rounded=0;whiteSpace=wrap;html=1;fillColor=#bac8d3;strokeColor=#23445d;" vertex="1" parent="1">
          <mxGeometry x="469.65" y="590" width="59.35" height="60" as="geometry" />
        </mxCell>
        <mxCell id="ayYl6s1Dmx4laIE9Qj4S-45" value="" style="rounded=0;whiteSpace=wrap;html=1;fillColor=#bac8d3;strokeColor=#23445d;" vertex="1" parent="1">
          <mxGeometry x="551" y="590" width="59.35" height="60" as="geometry" />
        </mxCell>
        <mxCell id="ayYl6s1Dmx4laIE9Qj4S-46" value="" style="rounded=0;whiteSpace=wrap;html=1;fillColor=#f5f5f5;fontColor=#333333;strokeColor=#666666;" vertex="1" parent="1">
          <mxGeometry x="860" y="245" width="59.35" height="60" as="geometry" />
        </mxCell>
        <mxCell id="ayYl6s1Dmx4laIE9Qj4S-47" value="" style="rounded=0;whiteSpace=wrap;html=1;fillColor=#f5f5f5;fontColor=#333333;strokeColor=#666666;" vertex="1" parent="1">
          <mxGeometry x="950.33" y="245" width="59.35" height="60" as="geometry" />
        </mxCell>
        <mxCell id="ayYl6s1Dmx4laIE9Qj4S-48" value="" style="endArrow=classic;html=1;rounded=0;entryX=0;entryY=0.25;entryDx=0;entryDy=0;exitX=1;exitY=0.5;exitDx=0;exitDy=0;strokeWidth=2;" edge="1" parent="1" source="ayYl6s1Dmx4laIE9Qj4S-32" target="ayYl6s1Dmx4laIE9Qj4S-35">
          <mxGeometry width="50" height="50" relative="1" as="geometry">
            <mxPoint x="294" y="230" as="sourcePoint" />
            <mxPoint x="344" y="180" as="targetPoint" />
          </mxGeometry>
        </mxCell>
        <mxCell id="ayYl6s1Dmx4laIE9Qj4S-49" value="" style="endArrow=classic;html=1;rounded=0;entryX=0;entryY=0.5;entryDx=0;entryDy=0;dashed=1;strokeWidth=2;dashPattern=8 8;" edge="1" parent="1" target="ayYl6s1Dmx4laIE9Qj4S-35">
          <mxGeometry width="50" height="50" relative="1" as="geometry">
            <mxPoint x="270" y="275" as="sourcePoint" />
            <mxPoint x="480" y="216" as="targetPoint" />
          </mxGeometry>
        </mxCell>
        <mxCell id="ayYl6s1Dmx4laIE9Qj4S-50" value="" style="endArrow=classic;html=1;rounded=0;exitX=1;exitY=0.5;exitDx=0;exitDy=0;dashed=1;dashPattern=1 2;strokeWidth=3;" edge="1" parent="1" source="ayYl6s1Dmx4laIE9Qj4S-34">
          <mxGeometry width="50" height="50" relative="1" as="geometry">
            <mxPoint x="280" y="285" as="sourcePoint" />
            <mxPoint x="470" y="240" as="targetPoint" />
          </mxGeometry>
        </mxCell>
        <mxCell id="ayYl6s1Dmx4laIE9Qj4S-51" value="" style="endArrow=classic;html=1;rounded=0;entryX=1;entryY=0.5;entryDx=0;entryDy=0;dashed=1;dashPattern=8 8;strokeWidth=2;" edge="1" parent="1" target="ayYl6s1Dmx4laIE9Qj4S-43">
          <mxGeometry width="50" height="50" relative="1" as="geometry">
            <mxPoint x="712.35" y="220" as="sourcePoint" />
            <mxPoint x="762.35" y="170" as="targetPoint" />
            <Array as="points">
              <mxPoint x="860" y="280" />
            </Array>
          </mxGeometry>
        </mxCell>
        <mxCell id="ayYl6s1Dmx4laIE9Qj4S-52" value="" style="endArrow=classic;html=1;rounded=0;entryX=0.25;entryY=0;entryDx=0;entryDy=0;exitX=0.25;exitY=1;exitDx=0;exitDy=0;dashed=1;dashPattern=1 2;strokeWidth=3;" edge="1" parent="1" source="ayYl6s1Dmx4laIE9Qj4S-35" target="ayYl6s1Dmx4laIE9Qj4S-39">
          <mxGeometry width="50" height="50" relative="1" as="geometry">
            <mxPoint x="460" y="340" as="sourcePoint" />
            <mxPoint x="510" y="290" as="targetPoint" />
            <Array as="points">
              <mxPoint x="600" y="450" />
            </Array>
          </mxGeometry>
        </mxCell>
        <mxCell id="ayYl6s1Dmx4laIE9Qj4S-54" value="" style="endArrow=classic;html=1;rounded=0;entryX=0.5;entryY=0;entryDx=0;entryDy=0;exitX=0.5;exitY=1;exitDx=0;exitDy=0;strokeWidth=2;" edge="1" parent="1" source="ayYl6s1Dmx4laIE9Qj4S-35" target="ayYl6s1Dmx4laIE9Qj4S-38">
          <mxGeometry width="50" height="50" relative="1" as="geometry">
            <mxPoint x="631" y="330" as="sourcePoint" />
            <mxPoint x="681" y="280" as="targetPoint" />
          </mxGeometry>
        </mxCell>
        <mxCell id="ayYl6s1Dmx4laIE9Qj4S-55" value="" style="rounded=0;whiteSpace=wrap;html=1;fillColor=#f5f5f5;fontColor=#333333;strokeColor=#666666;" vertex="1" parent="1">
          <mxGeometry x="1040" y="245" width="59.35" height="60" as="geometry" />
        </mxCell>
      </root>
    </mxGraphModel>
  </diagram>
</mxfile>
